<?xml version="1.0" encoding="iso-8859-1"?>
<!-- Generator: Adobe Illustrator 19.0.0, SVG Export Plug-In . SVG Version: 6.00 Build 0)  -->
<svg version="1.1" id="Layer_1" xmlns="http://www.w3.org/2000/svg" xmlns:xlink="http://www.w3.org/1999/xlink" x="0px" y="0px"
	 viewBox="0 0 512 512" style="enable-background:new 0 0 512 512;" xml:space="preserve">
<path style="fill:#67BFFF;" d="M380.105,155.188c0,1.674-0.021,3.358-0.052,5.053c-0.021,0.575-0.031,1.151-0.042,1.726
	c-0.031,1.109-0.073,2.228-0.126,3.337c-0.073,1.768-0.167,3.536-0.272,5.315c-0.01,0.136-0.01,0.262-0.021,0.398
	c-3.683,58.987-27.558,129.314-71.144,209.372c-34.881,64.092-69.271,109.875-70.987,112.135c0,0.01,0,0.01,0,0.01l-12.513,16.625
	l-0.031-0.031l-0.021,0.031l-12.482-16.572l-0.01-0.031c-1.454-1.915-35.98-47.813-71.008-112.167
	C97.81,300.332,73.935,230.004,70.252,171.017c-0.01-0.136-0.01-0.272-0.021-0.408c-0.115-1.779-0.199-3.547-0.272-5.294
	c-0.052-1.119-0.094-2.239-0.126-3.348c-0.01-0.575-0.031-1.151-0.042-1.726c-0.031-1.695-0.063-3.379-0.063-5.053
	C69.729,69.616,139.346,0,224.917,0S380.105,69.616,380.105,155.188z"/>
<path style="fill:#0088FF;" d="M380.105,155.188c0,1.674-0.021,3.358-0.052,5.053c-0.021,0.575-0.031,1.151-0.042,1.726
	c-0.031,1.109-0.073,2.228-0.126,3.337c-0.073,1.768-0.167,3.536-0.272,5.315c-0.01,0.136-0.01,0.262-0.021,0.398
	c-3.683,58.987-27.558,129.314-71.144,209.372c-34.881,64.092-69.271,109.875-70.987,112.135c0,0.01,0,0.01,0,0.01l-12.513,16.625
	l-0.031-0.031V0C310.488,0,380.105,69.616,380.105,155.188z"/>
<path style="fill:#FFFFFF;" d="M304.357,148.492c0,43.869-35.561,79.44-79.44,79.44c-43.869,0-79.43-35.572-79.43-79.44
	c0-43.879,35.561-79.44,79.43-79.44C268.796,69.051,304.357,104.613,304.357,148.492z"/>
<path style="fill:#57555C;" d="M442.271,406.467c0,58.286-47.248,105.533-105.533,105.533c-0.251,0-0.502,0-0.753-0.01
	c-28.51-0.188-54.32-11.697-73.194-30.247c-16.949-16.656-28.301-38.983-30.968-63.925c-0.398-3.725-0.617-7.512-0.617-11.352
	c0-31.628,13.925-60.001,35.959-79.346c0.241-0.209,0.481-0.418,0.722-0.617c8.59-7.407,18.393-13.444,29.054-17.796
	c12.063-4.907,25.235-7.669,39.045-7.753c0.251-0.01,0.502-0.01,0.753-0.01C395.023,300.944,442.271,348.181,442.271,406.467z"/>
<path style="fill:#3C3A41;" d="M442.271,406.467c0,58.286-47.248,105.533-105.533,105.533c-0.251,0-0.502,0-0.753-0.01V300.954
	c0.251-0.01,0.502-0.01,0.753-0.01C395.023,300.944,442.271,348.181,442.271,406.467z"/>
<polygon style="fill:#FFFFFF;" points="364.003,418.87 370.594,457.298 336.079,439.156 335.985,439.208 301.574,457.298 
	308.166,418.87 280.252,391.657 318.827,386.049 335.985,351.283 336.079,351.095 353.342,386.049 391.917,391.657 "/>
<g>
	<polygon style="fill:#D9D8DB;" points="364.003,418.87 370.594,457.298 336.079,439.156 335.985,439.208 335.985,351.283 
		336.079,351.095 353.342,386.049 391.917,391.657 	"/>
	<path style="fill:#D9D8DB;" d="M304.357,148.492c0,43.869-35.561,79.44-79.44,79.44V69.051
		C268.796,69.051,304.357,104.613,304.357,148.492z"/>
</g>
<g>
</g>
<g>
</g>
<g>
</g>
<g>
</g>
<g>
</g>
<g>
</g>
<g>
</g>
<g>
</g>
<g>
</g>
<g>
</g>
<g>
</g>
<g>
</g>
<g>
</g>
<g>
</g>
<g>
</g>
</svg>
